HIERARCHY
ROOT mixamorig:Hips
{
	OFFSET 0.000000 201.639420 0.000000
	CHANNELS 6 Xposition Yposition Zposition Xrotation Yrotation Zrotation
	JOINT mixamorig:Spine
	{
		OFFSET 0.006200 19.524994 -2.481800
		CHANNELS 3 Xrotation Yrotation Zrotation
		JOINT mixamorig:Spine1
		{
			OFFSET -0.000900 22.835007 -2.825400
			CHANNELS 3 Xrotation Yrotation Zrotation
			JOINT mixamorig:Spine2
			{
				OFFSET -0.020600 26.552490 -3.193300
				CHANNELS 3 Xrotation Yrotation Zrotation
				JOINT mixamorig:Neck
				{
					OFFSET -0.060000 30.701813 1.352200
					CHANNELS 3 Xrotation Yrotation Zrotation
					JOINT mixamorig:Head
					{
						OFFSET -0.087200 22.547607 3.670900
						CHANNELS 3 Xrotation Yrotation Zrotation
						JOINT mixamorig:HeadTop_End
						{
							OFFSET -0.830600 40.355194 7.893500
							CHANNELS 3 Xrotation Yrotation Zrotation
							End Site
							{
								OFFSET 0.000000 30.592346 0.000000
							}
						}
						JOINT mixamorig:RightEye
						{
							OFFSET -6.302100 18.118591 16.197100
							CHANNELS 3 Xrotation Yrotation Zrotation
							End Site
							{
								OFFSET 0.000000 30.592346 0.000000
							}
						}
						JOINT mixamorig:LeftEye
						{
							OFFSET 6.741500 18.382690 16.401899
							CHANNELS 3 Xrotation Yrotation Zrotation
							End Site
							{
								OFFSET 0.000000 30.592346 0.000000
							}
						}
					}
				}
				JOINT mixamorig:LeftShoulder
				{
					OFFSET 11.924900 18.230499 1.425400
					CHANNELS 3 Xrotation Yrotation Zrotation
					JOINT mixamorig:LeftArm
					{
						OFFSET 25.435989 -0.697632 -5.229300
						CHANNELS 3 Xrotation Yrotation Zrotation
						JOINT mixamorig:LeftForeArm
						{
							OFFSET 54.684776 0.000000 0.000000
							CHANNELS 3 Xrotation Yrotation Zrotation
							JOINT mixamorig:LeftHand
							{
								OFFSET 55.098175 0.000000 0.000000
								CHANNELS 3 Xrotation Yrotation Zrotation
								JOINT mixamorig:LeftHandMiddle1
								{
									OFFSET 23.369751 0.000000 0.000000
									CHANNELS 3 Xrotation Yrotation Zrotation
									JOINT mixamorig:LeftHandMiddle2
									{
										OFFSET 6.378677 0.000000 0.000000
										CHANNELS 3 Xrotation Yrotation Zrotation
										JOINT mixamorig:LeftHandMiddle3
										{
											OFFSET 6.148331 0.000000 0.000000
											CHANNELS 3 Xrotation Yrotation Zrotation
											JOINT mixamorig:LeftHandMiddle4
											{
												OFFSET 6.582504 0.000000 0.000000
												CHANNELS 3 Xrotation Yrotation Zrotation
												End Site
												{
													OFFSET -1.168900 6.395691 1.028606
												}
											}
										}
									}
								}
								JOINT mixamorig:LeftHandThumb1
								{
									OFFSET 7.235672 -3.848206 5.434273
									CHANNELS 3 Xrotation Yrotation Zrotation
									JOINT mixamorig:LeftHandThumb2
									{
										OFFSET 6.568451 -3.792297 3.792300
										CHANNELS 3 Xrotation Yrotation Zrotation
										JOINT mixamorig:LeftHandThumb3
										{
											OFFSET 6.063080 -3.500519 3.500518
											CHANNELS 3 Xrotation Yrotation Zrotation
											JOINT mixamorig:LeftHandThumb4
											{
												OFFSET 4.793182 -2.767334 2.767349
												CHANNELS 3 Xrotation Yrotation Zrotation
												End Site
												{
													OFFSET 0.101639 6.054260 1.275483
												}
											}
										}
									}
								}
								JOINT mixamorig:LeftHandIndex1
								{
									OFFSET 23.101074 -0.309540 4.992809
									CHANNELS 3 Xrotation Yrotation Zrotation
									JOINT mixamorig:LeftHandIndex2
									{
										OFFSET 6.226883 0.000000 0.000000
										CHANNELS 3 Xrotation Yrotation Zrotation
										JOINT mixamorig:LeftHandIndex3
										{
											OFFSET 6.094330 0.000000 0.000000
											CHANNELS 3 Xrotation Yrotation Zrotation
											JOINT mixamorig:LeftHandIndex4
											{
												OFFSET 5.482605 0.000000 0.000000
												CHANNELS 3 Xrotation Yrotation Zrotation
												End Site
												{
													OFFSET -1.427902 5.233032 0.797164
												}
											}
										}
									}
								}
								JOINT mixamorig:LeftHandRing1
								{
									OFFSET 22.299240 0.021149 -3.964172
									CHANNELS 3 Xrotation Yrotation Zrotation
									JOINT mixamorig:LeftHandRing2
									{
										OFFSET 6.321869 0.000000 0.000000
										CHANNELS 3 Xrotation Yrotation Zrotation
										JOINT mixamorig:LeftHandRing3
										{
											OFFSET 5.899796 0.000000 0.000000
											CHANNELS 3 Xrotation Yrotation Zrotation
											JOINT mixamorig:LeftHandRing4
											{
												OFFSET 6.517899 0.000000 0.000000
												CHANNELS 3 Xrotation Yrotation Zrotation
												End Site
												{
													OFFSET -1.637299 6.232208 0.980890
												}
											}
										}
									}
								}
								JOINT mixamorig:LeftHandPinky1
								{
									OFFSET 20.463791 -0.302338 -8.562233
									CHANNELS 3 Xrotation Yrotation Zrotation
									JOINT mixamorig:LeftHandPinky2
									{
										OFFSET 6.908646 0.000000 0.000000
										CHANNELS 3 Xrotation Yrotation Zrotation
										JOINT mixamorig:LeftHandPinky3
										{
											OFFSET 4.622849 0.000000 0.000000
											CHANNELS 3 Xrotation Yrotation Zrotation
											JOINT mixamorig:LeftHandPinky4
											{
												OFFSET 5.216080 0.000000 0.000000
												CHANNELS 3 Xrotation Yrotation Zrotation
												End Site
												{
													OFFSET -0.606308 5.116241 0.814926
												}
											}
										}
									}
								}
							}
						}
					}
				}
				JOINT mixamorig:RightShoulder
				{
					OFFSET -12.001300 18.284088 1.348900
					CHANNELS 3 Xrotation Yrotation Zrotation
					JOINT mixamorig:RightArm
					{
						OFFSET -25.308500 -0.751312 -5.164599
						CHANNELS 3 Xrotation Yrotation Zrotation
						JOINT mixamorig:RightForeArm
						{
							OFFSET -54.684429 0.000000 0.000000
							CHANNELS 3 Xrotation Yrotation Zrotation
							JOINT mixamorig:RightHand
							{
								OFFSET -55.150291 0.000000 0.000000
								CHANNELS 3 Xrotation Yrotation Zrotation
								JOINT mixamorig:RightHandMiddle1
								{
									OFFSET -23.317566 0.000000 0.000000
									CHANNELS 3 Xrotation Yrotation Zrotation
									JOINT mixamorig:RightHandMiddle2
									{
										OFFSET -6.378403 0.000000 0.000000
										CHANNELS 3 Xrotation Yrotation Zrotation
										JOINT mixamorig:RightHandMiddle3
										{
											OFFSET -6.148193 0.000000 0.000000
											CHANNELS 3 Xrotation Yrotation Zrotation
											JOINT mixamorig:RightHandMiddle4
											{
												OFFSET -6.583389 0.000000 0.000000
												CHANNELS 3 Xrotation Yrotation Zrotation
												End Site
												{
													OFFSET 1.171692 6.395905 1.029786
												}
											}
										}
									}
								}
								JOINT mixamorig:RightHandThumb1
								{
									OFFSET -7.190521 -3.860474 5.435846
									CHANNELS 3 Xrotation Yrotation Zrotation
									JOINT mixamorig:RightHandThumb2
									{
										OFFSET -6.567429 -3.791718 3.791708
										CHANNELS 3 Xrotation Yrotation Zrotation
										JOINT mixamorig:RightHandThumb3
										{
											OFFSET -6.062469 -3.500153 3.500166
											CHANNELS 3 Xrotation Yrotation Zrotation
											JOINT mixamorig:RightHandThumb4
											{
												OFFSET -4.792618 -2.767029 2.767022
												CHANNELS 3 Xrotation Yrotation Zrotation
												End Site
												{
													OFFSET -0.100327 6.053253 1.276754
												}
											}
										}
									}
								}
								JOINT mixamorig:RightHandIndex1
								{
									OFFSET -23.048981 -0.310791 4.992554
									CHANNELS 3 Xrotation Yrotation Zrotation
									JOINT mixamorig:RightHandIndex2
									{
										OFFSET -6.227539 0.000000 0.000000
										CHANNELS 3 Xrotation Yrotation Zrotation
										JOINT mixamorig:RightHandIndex3
										{
											OFFSET -6.095047 0.000000 0.000000
											CHANNELS 3 Xrotation Yrotation Zrotation
											JOINT mixamorig:RightHandIndex4
											{
												OFFSET -5.484772 0.000000 0.000000
												CHANNELS 3 Xrotation Yrotation Zrotation
												End Site
												{
													OFFSET 1.420593 5.237305 0.797056
												}
											}
										}
									}
								}
								JOINT mixamorig:RightHandRing1
								{
									OFFSET -22.246323 0.020569 -3.963762
									CHANNELS 3 Xrotation Yrotation Zrotation
									JOINT mixamorig:RightHandRing2
									{
										OFFSET -6.322128 0.000000 0.000000
										CHANNELS 3 Xrotation Yrotation Zrotation
										JOINT mixamorig:RightHandRing3
										{
											OFFSET -5.900024 0.000000 0.000000
											CHANNELS 3 Xrotation Yrotation Zrotation
											JOINT mixamorig:RightHandRing4
											{
												OFFSET -6.518356 0.000000 0.000000
												CHANNELS 3 Xrotation Yrotation Zrotation
												End Site
												{
													OFFSET 1.636398 6.232697 0.982186
												}
											}
										}
									}
								}
								JOINT mixamorig:RightHandPinky1
								{
									OFFSET -20.411011 -0.303314 -8.561701
									CHANNELS 3 Xrotation Yrotation Zrotation
									JOINT mixamorig:RightHandPinky2
									{
										OFFSET -6.907349 0.000000 0.000000
										CHANNELS 3 Xrotation Yrotation Zrotation
										JOINT mixamorig:RightHandPinky3
										{
											OFFSET -4.623840 0.000000 0.000000
											CHANNELS 3 Xrotation Yrotation Zrotation
											JOINT mixamorig:RightHandPinky4
											{
												OFFSET -5.218353 0.000000 0.000000
												CHANNELS 3 Xrotation Yrotation Zrotation
												End Site
												{
													OFFSET 0.602097 5.118835 0.816273
												}
											}
										}
									}
								}
							}
						}
					}
				}
			}
		}
	}
	JOINT mixamorig:LeftUpLeg
	{
		OFFSET 18.168400 -13.561905 -0.039000
		CHANNELS 3 Xrotation Yrotation Zrotation
		JOINT mixamorig:LeftLeg
		{
			OFFSET 0.577358 -80.825211 -3.695000
			CHANNELS 3 Xrotation Yrotation Zrotation
			JOINT mixamorig:LeftFoot
			{
				OFFSET -0.577356 -83.370262 -6.520700
				CHANNELS 3 Xrotation Yrotation Zrotation
				JOINT mixamorig:LeftToeBase
				{
					OFFSET 0.750401 -20.798306 25.135401
					CHANNELS 3 Xrotation Yrotation Zrotation
					JOINT mixamorig:LeftToe_End
					{
						OFFSET -0.000500 0.001200 19.917799
						CHANNELS 3 Xrotation Yrotation Zrotation
						End Site
						{
							OFFSET 0.000000 19.917805 0.000000
						}
					}
				}
			}
		}
	}
	JOINT mixamorig:RightUpLeg
	{
		OFFSET -18.162500 -13.585098 -0.041000
		CHANNELS 3 Xrotation Yrotation Zrotation
		JOINT mixamorig:RightLeg
		{
			OFFSET -0.595024 -80.945297 -3.631900
			CHANNELS 3 Xrotation Yrotation Zrotation
			JOINT mixamorig:RightFoot
			{
				OFFSET 0.595024 -83.218193 -6.561200
				CHANNELS 3 Xrotation Yrotation Zrotation
				JOINT mixamorig:RightToeBase
				{
					OFFSET -0.753601 -20.807106 25.115000
					CHANNELS 3 Xrotation Yrotation Zrotation
					JOINT mixamorig:RightToe_End
					{
						OFFSET 0.000299 0.001700 19.918200
						CHANNELS 3 Xrotation Yrotation Zrotation
						End Site
						{
							OFFSET 0.000000 19.918203 0.000000
						}
					}
				}
			}
		}
	}
}
MOTION
Frames: 4
Frame Time: 0.033333
144.924805 14.254532 69.198929 -94.744860 2.270635 86.827564 5.073366 -1.670514 -1.469300 -1.003103 -0.075837 0.971954 -1.000010 -0.071147 0.975747 -6.487829 0.201620 -1.988047 -4.494523 -3.797098 12.056022 -0.000001 -0.000000 0.000000 -0.000001 -0.000000 0.000000 -0.000001 -0.000000 0.000000 0.788208 -5.277465 2.550976 25.241096 -43.611834 -60.434101 0.000024 -21.398790 0.000004 -1.150227 8.150934 -2.420362 0.463299 5.195523 -9.580162 0.202585 1.528797 -15.096065 0.646104 2.676400 -27.139755 0.000001 -0.000000 0.000002 12.792918 1.467399 -0.270552 9.896708 22.724529 2.955711 -5.896188 9.560135 15.641589 0.000000 0.000001 0.000001 2.088126 8.773203 -20.494379 0.248922 1.691156 -16.745022 0.248906 1.691162 -16.745028 0.000003 -0.000003 0.000003 0.338561 9.812727 -1.774358 0.453363 2.261624 -22.667779 0.182119 1.450835 -14.308998 0.000001 -0.000001 0.000003 -1.156772 9.927323 9.130946 0.838395 3.021822 -31.006719 0.985721 3.254046 -33.697452 -0.000002 -0.000003 0.000004 0.511049 4.434870 18.339965 27.407102 14.014182 46.751719 0.000002 21.232639 0.000002 5.135200 1.333263 7.584147 0.241629 -3.610999 16.553317 0.314560 -1.684174 21.157775 0.528954 -2.157549 27.546798 0.000002 0.000002 0.000001 24.144034 5.082715 3.330753 4.612920 -15.130563 -7.014463 -4.178286 -16.709960 -17.039309 -0.000001 -0.000003 -0.000000 1.114396 -5.583586 25.174097 0.213404 -1.395005 17.393985 0.043004 -0.632057 7.783094 -0.000001 -0.000000 0.000002 0.048430 -2.340837 0.721536 1.001832 -2.887750 38.259451 0.656385 -2.385815 30.761044 0.000000 0.000004 -0.000001 0.066849 -1.863683 -5.142139 1.080962 -2.985197 39.803641 0.104981 -0.984349 12.176103 0.000006 0.000002 0.000002 -11.813099 11.225641 10.183641 1.838937 7.693120 5.060782 12.860096 18.085538 -16.036214 10.667262 -0.000003 -0.000001 -0.000000 -0.000001 0.000000 -11.410860 -14.742174 -13.459507 4.117134 -9.200985 -4.806670 17.423427 -25.456081 22.600230 -4.017755 0.000002 0.000008 -0.000000 0.000001 -0.000000 
144.928009 14.250320 69.205444 -94.735455 2.256590 86.817674 5.113842 -1.648962 -1.451790 -1.018671 -0.074350 0.963738 -0.965910 -0.065872 1.015576 -6.500308 0.205573 -1.989275 -4.537910 -3.764081 12.007589 0.000000 0.000000 -0.000001 0.000000 0.000000 -0.000001 0.000000 0.000000 -0.000001 0.788155 -5.279470 2.523602 25.106401 -43.663087 -60.498544 0.000007 -21.235132 0.000003 -1.145153 8.056467 -2.413803 0.463298 5.195520 -9.580163 0.202588 1.528798 -15.096067 0.646103 2.676402 -27.139758 0.000002 -0.000001 0.000004 12.792911 1.467400 -0.270551 9.896709 22.724524 2.955711 -5.896185 9.560132 15.641589 0.000000 0.000001 -0.000001 2.088125 8.773201 -20.494377 0.248924 1.691155 -16.745018 0.248909 1.691165 -16.745032 0.000004 0.000003 0.000002 0.338553 9.812728 -1.774358 0.453365 2.261623 -22.667776 0.182117 1.450835 -14.308996 -0.000001 -0.000000 0.000003 -1.156780 9.927325 9.130947 0.838390 3.021824 -31.006719 0.985719 3.254044 -33.697452 -0.000001 0.000000 0.000001 0.514952 4.434159 18.248838 27.309842 13.979084 46.848141 0.000011 21.260883 -0.000005 4.955494 1.359063 7.532232 0.241628 -3.610998 16.553319 0.314562 -1.684175 21.157778 0.528951 -2.157549 27.546803 0.000001 -0.000004 0.000001 24.144034 5.082716 3.330753 4.612921 -15.130561 -7.014463 -4.178288 -16.709957 -17.039310 -0.000001 -0.000001 0.000001 1.114392 -5.583587 25.174098 0.213402 -1.395008 17.393985 0.042999 -0.632058 7.783093 0.000004 -0.000003 0.000001 0.048428 -2.340837 0.721537 1.001832 -2.887751 38.259458 0.656383 -2.385816 30.761044 -0.000002 0.000000 0.000000 0.066847 -1.863684 -5.142138 1.080953 -2.985199 39.803645 0.104980 -0.984345 12.176107 0.000003 0.000002 -0.000004 -11.825153 11.229346 10.202598 1.888101 7.701228 5.061119 12.838522 18.089959 -16.060476 10.539913 0.000017 0.000014 0.000000 0.000001 0.000000 -11.392740 -14.743206 -13.440626 4.116463 -9.193768 -4.816088 17.439409 -25.475455 22.659540 -4.050601 -0.000009 0.000006 -0.000000 0.000002 -0.000000 
144.924850 14.245239 69.208107 -94.730168 2.252402 86.822134 5.116107 -1.644030 -1.440293 -1.003644 -0.072918 0.948623 -0.873641 -0.062584 1.049823 -6.557105 0.215016 -1.964999 -4.601920 -3.683258 11.951229 -0.000000 0.000000 -0.000001 -0.000000 0.000000 -0.000001 -0.000000 0.000000 -0.000001 0.788111 -5.281463 2.496216 24.899759 -43.735364 -60.573785 0.000001 -21.006447 -0.000003 -1.169502 7.925792 -2.394017 0.463296 5.195521 -9.580163 0.202585 1.528796 -15.096067 0.646106 2.676400 -27.139758 -0.000000 0.000001 0.000001 12.792915 1.467400 -0.270552 9.896707 22.724529 2.955710 -5.896188 9.560136 15.641591 0.000000 0.000001 -0.000000 2.088124 8.773200 -20.494377 0.248923 1.691159 -16.745023 0.248903 1.691164 -16.745030 -0.000002 0.000001 -0.000001 0.338558 9.812727 -1.774358 0.453363 2.261622 -22.667776 0.182122 1.450832 -14.308992 0.000002 0.000000 0.000002 -1.156773 9.927321 9.130944 0.838386 3.021822 -31.006723 0.985721 3.254047 -33.697449 -0.000002 -0.000003 0.000004 0.515742 4.432090 18.188054 27.261122 14.033810 46.852359 0.000006 21.311022 -0.000006 4.949456 1.326856 7.561790 0.241632 -3.610999 16.553315 0.314556 -1.684176 21.157778 0.528955 -2.157549 27.546803 0.000001 -0.000004 0.000001 24.144039 5.082715 3.330752 4.612920 -15.130565 -7.014464 -4.178288 -16.709959 -17.039309 -0.000001 0.000001 -0.000000 1.114399 -5.583587 25.174093 0.213402 -1.395008 17.393983 0.042998 -0.632058 7.783095 -0.000000 0.000001 -0.000001 0.048428 -2.340838 0.721534 1.001833 -2.887751 38.259458 0.656380 -2.385816 30.761041 -0.000002 -0.000001 -0.000004 0.066851 -1.863683 -5.142140 1.080955 -2.985198 39.803641 0.104980 -0.984344 12.176100 0.000000 -0.000002 0.000004 -11.819105 11.226637 10.188171 1.899853 7.721460 5.062488 12.815860 18.089891 -16.077673 10.623634 -0.000004 -0.000006 0.000001 -0.000001 -0.000000 -11.394793 -14.744758 -13.437923 4.111250 -9.176489 -4.823503 17.434724 -25.449544 22.625920 -4.045730 0.000005 -0.000012 -0.000000 -0.000003 -0.000000 
144.926865 14.245331 69.211494 -94.719356 2.266617 86.825447 4.859855 -1.850389 -1.631155 -0.748301 -0.071365 1.127519 -0.835653 -0.062239 1.076921 -6.621581 0.223671 -1.939172 -4.659485 -3.603878 11.911507 0.000000 0.000000 -0.000000 0.000000 0.000000 -0.000000 0.000000 0.000000 -0.000000 0.788042 -5.283457 2.468850 24.965060 -43.721260 -60.577166 -0.000005 -21.155422 -0.000001 -1.391446 8.046342 -2.287966 0.463300 5.195520 -9.580165 0.202590 1.528797 -15.096064 0.646105 2.676401 -27.139757 0.000004 0.000002 -0.000000 12.792914 1.467399 -0.270552 9.896711 22.724524 2.955711 -5.896187 9.560136 15.641591 0.000000 -0.000001 -0.000000 2.088128 8.773201 -20.494377 0.248927 1.691156 -16.745020 0.248906 1.691162 -16.745027 0.000001 0.000000 -0.000001 0.338559 9.812729 -1.774360 0.453360 2.261625 -22.667781 0.182119 1.450834 -14.308995 -0.000003 0.000000 -0.000001 -1.156773 9.927326 9.130944 0.838388 3.021822 -31.006719 0.985714 3.254047 -33.697452 0.000002 -0.000000 0.000005 0.509125 4.471463 18.612986 27.671034 14.245885 46.024294 -0.000024 21.466323 0.000012 5.043779 1.150245 7.676355 0.241629 -3.610999 16.553315 0.314561 -1.684175 21.157775 0.528957 -2.157552 27.546802 -0.000001 -0.000001 0.000002 24.144039 5.082713 3.330752 4.612921 -15.130563 -7.014464 -4.178288 -16.709959 -17.039310 -0.000001 -0.000006 -0.000000 1.114400 -5.583586 25.174098 0.213401 -1.395008 17.393982 0.043002 -0.632058 7.783095 -0.000001 -0.000001 -0.000003 0.048428 -2.340838 0.721534 1.001828 -2.887751 38.259455 0.656383 -2.385815 30.761048 -0.000001 -0.000003 -0.000006 0.066849 -1.863684 -5.142137 1.080957 -2.985196 39.803641 0.104989 -0.984349 12.176103 0.000004 -0.000002 0.000003 -11.815484 11.227918 10.191666 1.854276 7.710221 5.061069 12.866692 18.115658 -16.055640 10.497839 -0.000015 -0.000014 -0.000001 0.000001 0.000000 -11.411723 -14.733543 -13.437909 4.111780 -9.173958 -4.831879 17.445785 -25.467598 22.650820 -4.052226 0.000001 0.000009 -0.000000 0.000001 -0.000000 
